<?xml version="1.0" encoding="iso-8859-1"?>
<!-- Uploaded to: SVG Repo, www.svgrepo.com, Generator: SVG Repo Mixer Tools -->
<!DOCTYPE svg PUBLIC "-//W3C//DTD SVG 1.1//EN" "http://www.w3.org/Graphics/SVG/1.1/DTD/svg11.dtd">
<svg fill="#f4f4f4" height="800px" width="800px" version="1.1" id="Capa_1" xmlns="http://www.w3.org/2000/svg" xmlns:xlink="http://www.w3.org/1999/xlink" 
	 viewBox="0 0 242.992 242.992" xml:space="preserve">
<g>
	<path d="M180.931,16.992h-40.308c0.347-1.183,0.542-2.431,0.542-3.725C141.165,5.952,135.213,0,127.897,0h-12.803
		c-7.315,0-13.268,5.952-13.268,13.268c0,1.294,0.195,2.542,0.542,3.725H62.062c-9.925,0-18,8.075-18,18v10.86
		c0,9.925,8.075,18,18,18h0.221c-1.019,0.834-1.768,2.001-2.064,3.364c-1.936,8.888-1.936,17.901,0,26.79
		c0.257,1.18,0.864,2.201,1.681,2.999c-3.238,0.086-5.838,2.733-5.838,5.992v121.996c0,9.925,8.075,18,18,18h94.869
		c9.925,0,18-8.075,18-18V102.996c0-3.259-2.601-5.905-5.838-5.992c0.817-0.798,1.424-1.819,1.681-2.999
		c1.936-8.888,1.936-17.902,0-26.79c-0.296-1.363-1.045-2.529-2.064-3.364h0.221c9.925,0,18-8.075,18-18v-10.86
		C198.931,25.067,190.855,16.992,180.931,16.992z M86.664,82.493v-2.535c0-2.808,2.276-5.084,5.084-5.084
		c0,0,17.455,2.276,17.455,5.084v2.535c0,2.808-2.276,5.084-5.084,5.084H91.748C88.94,87.577,86.664,85.301,86.664,82.493z
		 M133.79,82.493v-2.535c0-2.808,17.455-5.084,17.455-5.084c2.808,0,5.084,2.276,5.084,5.084v2.535c0,2.808-2.276,5.084-5.084,5.084
		h-12.371C136.066,87.577,133.79,85.301,133.79,82.493z M174.931,224.992c0,3.309-2.691,6-6,6h-13.566v-90.336c0-2.209-1.791-4-4-4
		s-4,1.791-4,4v90.336h-21.434v-90.336c0-2.209-1.791-4-4-4s-4,1.791-4,4v90.336h-21v-90.336c0-2.209-1.791-4-4-4s-4,1.791-4,4
		v90.336H74.062c-3.309,0-6-2.691-6-6V108.996h106.869V224.992z M109.827,13.268c0-2.905,2.363-5.268,5.268-5.268h12.803
		c2.904,0,5.268,2.363,5.268,5.268c0,1.453-0.592,2.771-1.546,3.725h-20.245C110.419,16.038,109.827,14.721,109.827,13.268z
		 M186.931,45.852c0,3.309-2.691,6-6,6H62.062c-3.309,0-6-2.691-6-6v-10.86c0-3.309,2.691-6,6-6h118.869c3.309,0,6,2.691,6,6V45.852
		z"/>
</g>
</svg>